<?xml version="1.0" standalone="no"?>
<!DOCTYPE svg PUBLIC "-//W3C//DTD SVG 20010904//EN"
 "http://www.w3.org/TR/2001/REC-SVG-20010904/DTD/svg10.dtd">
<svg version="1.0" xmlns="http://www.w3.org/2000/svg"
 width="480.000000pt" height="480.000000pt" viewBox="0 0 480.000000 480.000000"
 preserveAspectRatio="xMidYMid meet">

<g transform="translate(0.000000,480.000000) scale(0.100000,-0.100000)"
fill="#000000" stroke="none">
<path d="M2155 4790 c-177 -11 -385 -46 -420 -70 -5 -4 -41 -17 -80 -29 -38
-12 -92 -33 -119 -47 -28 -13 -57 -24 -66 -24 -8 0 -33 -12 -55 -27 -35 -23
-37 -27 -19 -34 10 -4 87 -8 169 -8 149 -1 367 -22 415 -40 14 -6 56 -18 94
-27 38 -9 90 -26 115 -39 25 -12 66 -28 91 -35 25 -8 47 -17 50 -20 3 -3 30
-16 60 -29 30 -13 59 -30 63 -37 4 -8 14 -14 21 -14 8 0 36 -15 63 -32 26 -18
60 -38 75 -45 15 -7 45 -28 66 -48 22 -19 42 -35 44 -35 15 0 118 -99 240
-231 48 -52 97 -103 108 -115 11 -12 20 -25 20 -30 0 -5 19 -32 41 -59 79 -95
128 -174 250 -405 13 -25 28 -48 33 -51 4 -4 18 -22 30 -42 11 -19 40 -64 64
-100 51 -78 84 -136 113 -197 12 -25 26 -46 30 -48 5 -2 9 -10 9 -18 0 -8 4
-14 9 -14 22 0 32 373 11 450 -6 25 -23 94 -36 154 -13 60 -28 114 -33 120 -4
6 -16 40 -25 76 -10 36 -26 79 -36 95 -10 17 -26 51 -34 77 -9 25 -32 72 -50
105 -19 32 -52 90 -74 128 -50 87 -163 229 -252 316 -145 141 -388 338 -417
339 -7 0 -13 4 -13 9 0 11 -94 48 -145 57 -22 4 -45 10 -51 15 -15 12 -232 18
-359 9z"/>
<path d="M3082 4667 c20 -28 185 -181 221 -204 33 -22 267 -310 267 -330 0 -7
6 -16 13 -20 14 -9 18 -17 88 -150 28 -54 60 -125 71 -158 11 -33 23 -64 28
-70 4 -5 15 -44 24 -85 10 -41 26 -111 36 -155 10 -44 24 -125 31 -179 22
-179 -4 -657 -39 -723 -5 -10 -15 -61 -22 -113 -24 -184 -67 -362 -104 -432
-13 -25 -27 -59 -31 -76 -3 -18 -11 -34 -16 -37 -13 -9 -11 -43 4 -48 31 -11
108 52 216 180 48 56 96 119 107 140 10 20 33 60 50 88 17 27 34 60 38 73 4
12 11 22 15 22 10 0 65 119 96 210 80 232 103 356 111 610 6 186 -10 391 -35
437 -5 10 -17 52 -27 93 -9 41 -22 89 -30 105 -7 17 -20 59 -29 95 -13 51 -29
79 -70 130 -53 64 -128 140 -139 140 -3 0 -26 21 -52 47 -26 26 -57 55 -69 63
-12 8 -54 36 -92 63 -39 26 -73 47 -77 47 -4 0 -31 15 -59 33 -132 86 -217
128 -317 159 -36 11 -74 26 -86 33 -19 13 -118 45 -136 45 -5 0 2 -15 14 -33z"/>
<path d="M1370 4384 c-87 -8 -203 -26 -219 -34 -9 -5 -50 -16 -91 -25 -74 -17
-187 -75 -197 -102 -3 -7 -10 -13 -15 -13 -18 0 -292 -257 -340 -320 -65 -84
-118 -159 -118 -168 0 -5 -9 -17 -20 -27 -11 -10 -20 -22 -20 -27 0 -5 -16
-33 -35 -62 -19 -29 -35 -57 -35 -63 0 -5 -8 -18 -18 -29 -10 -10 -24 -39 -32
-64 -7 -25 -23 -65 -35 -90 -12 -25 -28 -67 -35 -95 -8 -27 -16 -52 -19 -55
-17 -14 -54 -150 -41 -150 4 0 19 15 33 33 13 18 57 65 96 104 39 39 71 74 71
79 0 4 15 22 33 39 17 18 51 52 74 76 23 24 50 51 61 59 10 8 54 47 98 86 122
108 163 136 284 194 25 12 52 27 60 34 8 7 44 23 80 35 36 12 79 29 96 36 16
8 70 23 120 35 49 11 98 23 109 26 98 28 385 27 538 -2 175 -33 282 -56 292
-63 6 -4 51 -18 100 -30 50 -12 98 -26 107 -31 9 -5 53 -19 98 -30 45 -12 92
-27 104 -34 11 -8 53 -19 91 -25 39 -7 102 -23 140 -35 79 -27 165 -42 165
-29 0 33 -333 365 -395 394 -11 5 -42 25 -70 44 -27 19 -55 35 -62 35 -7 0
-13 4 -13 9 0 5 -17 18 -37 29 -21 10 -73 38 -115 61 -43 23 -101 50 -130 62
-29 11 -68 27 -87 36 -19 8 -71 24 -115 35 -45 10 -90 23 -101 28 -54 25 -325
45 -455 34z"/>
<path d="M4407 3718 c6 -7 18 -95 28 -196 21 -220 16 -618 -9 -712 -8 -30 -19
-71 -24 -90 -5 -19 -18 -69 -27 -110 -9 -41 -20 -79 -24 -85 -4 -5 -16 -37
-25 -70 -10 -33 -29 -77 -43 -98 -13 -21 -28 -48 -33 -60 -6 -12 -16 -31 -22
-42 -34 -53 -65 -104 -83 -137 -46 -86 -261 -322 -375 -413 -167 -132 -243
-180 -365 -230 -21 -9 -48 -23 -58 -33 -19 -17 -43 -30 -162 -91 -33 -17 -82
-44 -110 -61 -90 -53 -99 -58 -145 -65 -72 -11 -80 -15 -80 -40 0 -34 19 -41
155 -55 117 -12 222 -9 410 11 84 9 260 60 325 95 14 7 52 22 84 34 33 11 71
30 86 40 15 11 39 24 54 30 14 5 26 14 26 19 0 5 11 12 24 15 14 3 44 21 68
38 24 18 56 40 72 48 43 22 333 313 393 394 54 72 133 223 153 291 6 22 18 54
25 70 7 17 20 71 30 120 9 50 22 101 28 114 16 32 16 323 0 342 -6 8 -14 43
-17 79 -8 74 -33 195 -46 225 -5 11 -18 55 -30 98 -12 42 -27 90 -35 105 -8
15 -34 70 -59 124 -25 53 -49 98 -53 100 -5 1 -18 23 -31 48 -59 114 -89 160
-103 160 -8 0 -8 -4 -2 -12z"/>
<path d="M1500 3710 c-111 -12 -207 -29 -228 -40 -10 -5 -55 -19 -102 -30 -47
-12 -94 -27 -105 -34 -11 -8 -45 -24 -75 -37 -30 -13 -59 -27 -65 -31 -5 -4
-50 -29 -100 -54 -49 -26 -104 -57 -121 -70 -17 -13 -34 -24 -38 -24 -12 0
-196 -163 -257 -226 -105 -111 -239 -279 -239 -300 0 -5 -16 -31 -35 -58 -19
-27 -35 -57 -35 -66 0 -8 -6 -25 -14 -36 -8 -11 -24 -56 -36 -100 -11 -43 -26
-92 -31 -109 -15 -45 -22 -270 -11 -350 6 -38 20 -137 31 -220 11 -82 27 -168
36 -190 8 -22 23 -71 34 -110 27 -100 71 -218 85 -230 6 -5 24 -37 40 -70 67
-143 108 -225 117 -231 12 -7 11 19 -6 151 -29 220 -36 357 -26 481 15 173 48
377 71 429 5 11 18 54 29 95 12 41 30 93 41 115 11 21 20 46 20 55 0 9 13 37
29 62 16 25 32 55 36 67 3 11 11 21 16 21 5 0 14 12 20 27 5 14 25 48 44 74
19 25 35 50 35 53 0 10 54 79 127 163 114 130 440 390 603 482 33 18 261 138
327 171 29 14 61 34 71 43 10 9 34 22 53 28 19 7 53 25 76 41 23 15 46 28 52
28 27 0 7 18 -26 24 -66 11 -355 15 -443 6z"/>
<path d="M2290 3524 c-173 -20 -263 -45 -399 -112 -113 -56 -189 -113 -304
-226 -111 -110 -169 -192 -192 -274 -9 -31 -23 -66 -30 -78 -7 -11 -23 -65
-34 -120 -12 -55 -26 -115 -32 -134 -16 -49 -23 -364 -11 -425 29 -140 92
-302 149 -382 153 -218 280 -343 348 -343 15 0 41 -11 58 -23 110 -81 326
-146 537 -162 148 -11 418 54 555 133 154 90 305 225 397 357 74 106 109 181
149 317 32 109 33 119 34 293 0 172 -2 186 -33 305 -18 69 -42 144 -53 167
-10 24 -19 46 -19 51 0 5 -19 39 -42 78 -79 133 -265 333 -368 398 -119 75
-276 140 -398 165 -58 12 -256 22 -312 15z m22 -323 c51 -57 49 -108 -4 -160
-25 -25 -40 -31 -74 -31 -57 0 -113 25 -124 56 -24 63 -4 117 55 152 54 31
110 25 147 -17z m-401 -134 c31 -17 69 -47 85 -66 27 -32 29 -41 29 -120 0
-76 -3 -90 -25 -119 -39 -53 -93 -76 -175 -76 -57 0 -80 5 -122 27 -70 36 -93
71 -93 141 0 44 7 68 30 110 36 64 52 79 116 111 65 32 88 31 155 -8z m347
-352 c58 -68 -7 -195 -100 -195 -60 0 -98 42 -98 107 1 47 17 83 38 83 5 0 12
6 15 14 14 35 112 28 145 -9z m-554 -175 c24 -23 31 -39 31 -70 0 -34 -7 -47
-42 -82 -39 -38 -46 -42 -93 -41 -45 1 -54 5 -85 39 -40 44 -47 96 -18 141 40
61 152 69 207 13z"/>
<path d="M1045 2879 c-33 -38 -88 -98 -121 -133 -34 -35 -65 -73 -69 -85 -3
-11 -11 -21 -16 -21 -5 0 -14 -10 -19 -22 -5 -13 -25 -45 -44 -72 -20 -27 -36
-55 -36 -62 0 -7 -6 -19 -14 -27 -18 -18 -70 -126 -95 -198 -10 -30 -26 -72
-34 -94 -74 -187 -101 -383 -94 -669 7 -277 42 -434 141 -637 59 -122 209
-301 333 -399 84 -66 143 -110 148 -110 4 0 25 -13 48 -29 77 -53 297 -171
319 -171 6 0 30 -9 52 -19 53 -25 176 -61 209 -61 14 0 29 -4 32 -10 3 -5 13
-10 22 -10 23 0 -14 38 -94 97 -35 25 -63 50 -63 54 0 5 -12 15 -27 23 -45 23
-271 253 -339 346 -35 47 -70 92 -79 101 -8 9 -15 19 -15 24 0 5 -18 36 -40
69 -21 34 -53 93 -70 131 -18 39 -42 92 -56 119 -13 28 -24 58 -24 68 0 10 -9
43 -19 73 -11 30 -27 101 -36 157 -10 57 -22 114 -29 127 -16 34 -15 522 0
542 7 8 15 55 19 104 4 50 14 124 21 165 14 75 16 82 27 110 3 8 13 58 22 110
9 52 20 102 25 112 5 9 19 56 30 104 12 49 26 96 31 106 12 23 29 141 20 149
-3 3 -33 -25 -66 -62z"/>
<path d="M1089 1913 c-14 -42 -8 -288 11 -458 14 -122 60 -286 108 -380 20
-38 59 -118 88 -177 29 -59 62 -120 72 -135 10 -16 34 -51 53 -79 75 -112 312
-353 399 -407 19 -12 37 -25 40 -29 15 -21 229 -141 307 -172 128 -51 216 -67
403 -73 138 -4 188 -2 307 16 178 27 389 92 538 167 17 8 64 25 105 38 119 38
104 46 -92 46 -196 0 -357 13 -468 37 -167 36 -317 76 -372 99 -31 13 -63 24
-71 24 -25 0 -283 137 -377 200 -97 65 -224 167 -294 236 -73 71 -247 288
-328 409 -45 66 -85 122 -89 125 -12 8 -69 94 -69 104 0 5 -11 23 -24 41 -13
17 -57 94 -97 170 -40 77 -87 161 -105 187 l-32 48 -13 -37z"/>
<path d="M4655 1746 c-25 -29 -45 -56 -45 -60 0 -8 -18 -29 -108 -126 -33 -36
-80 -86 -104 -112 -24 -27 -48 -48 -53 -48 -6 0 -23 -14 -40 -31 -16 -17 -66
-57 -110 -89 -44 -33 -90 -68 -103 -79 -12 -12 -25 -21 -27 -21 -2 0 -26 -13
-52 -28 -26 -15 -73 -38 -103 -51 -30 -13 -57 -27 -60 -30 -3 -4 -39 -18 -80
-30 -41 -13 -79 -27 -85 -31 -5 -4 -48 -17 -95 -29 -47 -13 -94 -27 -105 -32
-92 -39 -489 -38 -580 2 -11 4 -87 18 -169 29 -82 12 -156 26 -165 31 -23 13
-141 49 -161 49 -9 0 -21 5 -26 10 -6 6 -51 17 -100 25 -49 9 -105 22 -124 30
-19 8 -70 24 -112 35 -42 10 -87 26 -100 34 -13 8 -44 18 -71 21 l-47 7 22
-43 c29 -56 219 -253 275 -286 24 -14 43 -29 43 -34 0 -5 4 -9 10 -9 5 0 33
-18 62 -40 29 -22 57 -40 61 -40 4 0 35 -18 67 -40 32 -22 64 -40 69 -40 6 0
11 -4 11 -8 0 -4 24 -16 53 -27 28 -10 72 -28 97 -41 25 -12 63 -27 85 -34 22
-6 54 -18 72 -26 17 -8 64 -22 105 -30 40 -9 84 -22 98 -29 79 -40 482 -53
650 -21 52 9 99 21 105 25 5 5 35 16 65 26 62 21 150 65 230 117 170 110 413
406 542 658 24 47 46 86 50 88 5 2 18 36 29 75 12 40 25 77 29 82 4 6 17 46
29 90 12 44 26 88 31 97 14 26 12 55 -5 61 -9 4 -31 -13 -60 -47z"/>
</g>
</svg>
