<?xml version="1.0" standalone="no"?>
<!DOCTYPE svg PUBLIC "-//W3C//DTD SVG 20010904//EN"
 "http://www.w3.org/TR/2001/REC-SVG-20010904/DTD/svg10.dtd">
<svg version="1.0" xmlns="http://www.w3.org/2000/svg"
 width="663.000000pt" height="527.000000pt" viewBox="0 0 663.000000 527.000000"
 preserveAspectRatio="xMidYMid meet">

<g transform="translate(0.000000,527.000000) scale(0.100000,-0.100000)"
fill="#000000" stroke="none">
<path d="M3015 5260 c-148 -9 -218 -22 -326 -59 -124 -42 -262 -100 -278 -116
-12 -12 -9 -14 20 -19 19 -3 99 -7 179 -10 221 -6 351 -35 556 -123 334 -144
616 -415 836 -803 45 -80 105 -179 133 -221 28 -42 77 -125 110 -185 l60 -109
7 60 c18 146 13 285 -15 405 -48 203 -110 365 -199 517 -105 180 -204 293
-392 451 -252 212 -325 234 -691 212z"/>
<path d="M3809 5161 c12 -17 66 -69 119 -116 270 -237 434 -520 509 -882 24
-114 27 -150 27 -333 1 -198 -5 -263 -39 -420 -8 -36 -21 -111 -29 -168 -17
-113 -46 -219 -83 -299 -28 -64 -38 -109 -25 -117 19 -11 106 59 176 143 171
207 297 494 336 767 38 265 24 447 -54 713 -38 126 -53 163 -85 205 -35 45
-172 177 -234 227 -56 44 -342 209 -389 225 -29 9 -83 30 -119 45 -37 15 -81
30 -99 34 l-33 7 22 -31z"/>
<path d="M2360 4920 c-95 -11 -242 -45 -295 -69 -89 -39 -358 -293 -442 -416
-81 -120 -155 -249 -185 -324 -49 -123 -107 -295 -101 -301 2 -3 24 16 46 41
23 26 82 91 130 145 132 147 300 291 416 356 261 147 520 199 806 164 148 -19
250 -43 485 -116 91 -28 206 -62 255 -75 50 -13 117 -30 150 -39 67 -18 85
-20 85 -8 0 34 -256 285 -363 355 -344 227 -675 323 -987 287z"/>
<path d="M4914 4365 c2 -11 12 -87 22 -169 12 -111 15 -197 11 -340 -4 -168
-8 -206 -35 -316 -17 -69 -44 -164 -60 -211 -31 -90 -122 -259 -200 -369 -116
-164 -351 -369 -517 -451 -55 -28 -131 -68 -170 -91 -169 -98 -242 -136 -275
-143 -62 -12 -70 -16 -70 -35 0 -28 24 -37 134 -50 261 -31 553 37 811 189
127 76 188 123 306 241 205 203 279 338 344 625 29 128 31 204 9 352 -26 179
-78 364 -137 491 -35 74 -134 247 -157 273 -19 21 -21 22 -16 4z"/>
<path d="M2540 4363 c-187 -19 -342 -64 -503 -144 -152 -77 -210 -113 -311
-199 -258 -217 -421 -474 -457 -720 -23 -160 12 -471 76 -685 47 -155 215
-504 215 -447 0 6 -7 70 -16 144 -75 618 98 1126 505 1482 204 178 297 241
561 381 127 67 235 127 276 152 10 6 16 14 13 18 -18 17 -252 29 -359 18z"/>
<path d="M3135 4200 c-155 -17 -311 -78 -435 -170 -89 -66 -224 -209 -254
-269 -37 -73 -76 -194 -102 -320 -48 -233 -26 -453 65 -636 76 -153 271 -365
335 -365 12 0 37 -11 56 -25 85 -63 311 -125 461 -126 157 -1 347 55 478 141
210 138 341 307 407 525 25 82 27 105 28 255 0 150 -2 174 -27 263 -38 137
-82 238 -135 309 -71 94 -200 226 -266 270 -166 114 -405 172 -611 148z m34
-266 c18 -15 33 -39 37 -60 6 -31 2 -40 -27 -70 -37 -38 -79 -45 -129 -19 -73
38 -62 131 20 164 41 16 67 12 99 -15z m-316 -124 c69 -43 89 -81 85 -157 -3
-44 -10 -71 -25 -90 -62 -84 -183 -90 -282 -14 -20 15 -25 30 -29 78 -6 90 36
162 118 197 52 22 81 19 133 -14z m280 -291 c45 -55 -11 -159 -86 -159 -42 0
-77 40 -77 87 1 44 15 66 56 88 36 19 83 12 107 -16z m-464 -143 c59 -59 9
-159 -80 -159 -35 0 -48 6 -71 32 -45 50 -34 115 27 150 31 18 94 6 124 -23z"/>
<path d="M2072 3601 c-164 -184 -240 -314 -320 -541 -62 -179 -85 -342 -79
-554 6 -240 44 -396 140 -580 34 -65 65 -105 162 -202 126 -128 264 -228 425
-309 92 -46 269 -110 330 -119 l45 -6 -36 32 c-20 18 -69 60 -108 93 -221 183
-393 399 -489 615 -116 259 -156 581 -113 915 21 170 72 414 119 580 31 107
44 183 34 188 -4 2 -53 -48 -110 -112z"/>
<path d="M2160 2845 c-24 -73 4 -406 46 -555 29 -101 173 -391 241 -487 77
-109 264 -289 380 -366 135 -91 225 -133 341 -163 261 -68 554 -31 884 109 57
25 125 51 149 58 108 30 75 37 -201 42 -154 2 -233 8 -280 20 -36 8 -105 25
-154 37 -101 24 -288 95 -373 141 -86 47 -240 152 -316 214 -171 142 -451 525
-621 850 -26 50 -55 101 -65 114 l-18 24 -13 -38z"/>
<path d="M5138 2732 c-13 -15 -50 -59 -81 -98 -77 -96 -220 -240 -292 -293
-33 -25 -82 -62 -110 -82 -71 -53 -194 -112 -332 -159 -267 -93 -393 -101
-710 -45 -109 19 -247 51 -308 70 -60 18 -126 37 -145 40 -46 8 -153 39 -263
76 -128 42 -135 40 -91 -26 94 -142 365 -350 574 -440 514 -223 957 -202 1272
59 132 110 294 323 395 521 49 96 133 333 133 374 0 31 -15 33 -42 3z"/>
<path d="M2090 783 c-145 -24 -230 -109 -233 -232 -4 -110 76 -181 251 -226
57 -14 112 -31 123 -38 33 -20 34 -46 3 -78 -23 -24 -36 -29 -73 -29 -63 0
-119 17 -159 47 l-34 25 -43 -42 c-23 -23 -49 -53 -56 -67 -12 -22 -11 -26 11
-44 48 -38 137 -78 201 -89 197 -36 369 78 369 245 0 123 -44 159 -269 225
-49 14 -84 31 -103 50 -28 28 -28 31 -14 58 19 36 33 42 99 42 55 0 122 -25
146 -53 20 -25 37 -21 51 12 6 16 27 44 46 61 41 37 38 44 -34 83 -85 46 -191
65 -282 50z"/>
<path d="M0 767 c0 -8 20 -56 44 -108 24 -52 53 -125 66 -164 12 -38 45 -128
72 -200 28 -72 59 -159 70 -195 11 -36 25 -71 30 -78 7 -7 36 -12 78 -12 64 0
68 1 79 27 20 50 68 216 96 328 34 143 35 146 45 115 5 -14 39 -119 75 -235
37 -116 72 -215 78 -222 13 -13 137 -20 155 -9 6 3 14 21 17 39 12 51 101 326
172 525 36 101 64 185 62 187 -2 1 -47 5 -100 7 l-96 3 -26 -70 c-24 -65 -68
-209 -106 -350 -9 -35 -17 -51 -19 -39 -4 25 -147 453 -154 460 -3 3 -35 2
-70 -2 l-65 -6 -40 -127 c-23 -69 -53 -178 -69 -241 -19 -79 -29 -108 -34 -95
-24 68 -114 341 -130 394 -11 35 -21 65 -22 66 -2 1 -49 6 -105 10 -86 5 -103
4 -103 -8z"/>
<path d="M2772 768 c-7 -7 -12 -17 -12 -22 0 -22 -240 -599 -287 -690 -21 -40
-8 -46 107 -46 l95 0 24 70 24 70 153 0 153 0 22 -70 23 -70 109 0 c100 0 109
1 102 17 -4 10 -15 41 -25 68 -37 101 -119 304 -179 440 -34 77 -69 163 -78
192 l-17 53 -101 0 c-65 0 -105 -4 -113 -12z m158 -326 l50 -142 -53 1 c-28 0
-71 4 -94 7 l-42 7 39 118 c22 64 40 127 40 139 0 35 7 19 60 -130z"/>
<path d="M1325 758 c-100 -277 -190 -505 -253 -638 l-50 -105 101 -3 c66 -2
103 1 107 8 4 7 16 38 26 71 l19 59 159 -2 159 -3 26 -65 26 -65 100 3 c55 2
101 5 103 7 4 3 -54 122 -67 140 -9 11 -136 322 -202 493 l-43 112 -103 0
c-74 0 -105 -4 -108 -12z m173 -361 c18 -43 32 -82 32 -87 0 -6 -40 -10 -96
-10 -71 0 -95 3 -92 13 2 6 23 72 48 145 l44 134 16 -59 c10 -32 31 -93 48
-136z"/>
<path d="M4005 763 l-30 -4 1 -117 c1 -64 2 -228 3 -364 l1 -248 50 0 50 0 0
83 c0 45 3 119 7 165 l6 82 173 0 c96 0 174 -3 174 -7 0 -133 6 -303 11 -307
3 -3 27 -9 53 -12 l48 -7 -6 369 -5 369 -48 -3 c-26 -2 -51 -7 -54 -10 -4 -4
-4 -69 0 -145 3 -77 4 -142 1 -145 -3 -4 -85 -8 -182 -10 -141 -3 -178 0 -178
10 -1 7 -1 79 0 161 l1 147 -23 -2 c-13 0 -36 -3 -53 -5z"/>
<path d="M4924 758 c-34 -3 -80 -16 -102 -27 -41 -21 -124 -106 -146 -150 -46
-91 -47 -251 -2 -342 41 -82 107 -153 173 -186 49 -23 69 -27 143 -27 74 0 94
4 142 27 88 43 149 104 187 187 32 69 33 76 29 169 -6 113 -26 167 -88 235
-68 73 -131 108 -208 115 -37 3 -95 3 -128 -1z m140 -102 c62 -19 107 -55 142
-113 26 -43 29 -57 29 -138 0 -78 -4 -97 -27 -141 -62 -117 -179 -166 -293
-122 -52 20 -105 68 -133 122 -24 46 -27 61 -26 146 1 133 29 183 137 243 38
21 107 22 171 3z"/>
<path d="M5360 720 l0 -49 103 -3 102 -3 8 -70 c4 -38 5 -176 2 -305 -3 -129
-2 -240 2 -246 5 -6 32 -14 61 -17 l52 -6 0 324 0 324 113 3 112 3 3 45 3 45
-281 2 -280 2 0 -49z"/>
<path d="M6169 754 c-98 -34 -205 -145 -230 -238 -16 -60 -13 -174 6 -231 25
-75 73 -141 138 -190 71 -54 120 -69 212 -63 132 9 236 83 297 214 29 61 30
71 26 162 -3 83 -8 107 -33 157 -34 70 -104 144 -166 176 -58 30 -183 36 -250
13z m211 -119 c84 -53 124 -132 124 -245 1 -64 -3 -82 -26 -122 -49 -82 -125
-129 -209 -130 -55 0 -91 17 -142 69 -132 131 -120 326 24 416 80 49 163 53
229 12z"/>
<path d="M3343 397 l-1 -362 59 -3 59 -2 0 53 c0 30 3 88 6 130 l7 77 111 0
c128 0 175 16 239 78 53 50 67 82 67 144 -1 101 -64 190 -165 227 -48 18 -78
21 -218 21 l-162 0 -2 -363z m347 241 c54 -28 80 -62 86 -114 6 -45 -18 -92
-62 -120 -28 -19 -180 -32 -229 -20 l-25 6 0 135 0 135 93 0 c76 0 100 -4 137
-22z"/>
</g>
</svg>
